<svg width="310" height="310" viewBox="0 0 310 310" fill="none" xmlns="http://www.w3.org/2000/svg">
    <rect width="310" height="310" rx="20" fill="#3B82F6"/>
    <rect x="80" y="60" width="150" height="190" rx="8" fill="#FFFFFF"/>
    <rect x="80" y="60" width="15" height="190" rx="6" fill="#1E40AF"/>
    <text x="155" y="40" font-family="system-ui, sans-serif" font-size="18" font-weight="600" fill="#FFFFFF" text-anchor="middle">微信读书</text>
    <line x1="110" y1="90" x2="210" y2="90" stroke="#E5E7EB" stroke-width="2"/>
    <line x1="110" y1="110" x2="210" y2="110" stroke="#E5E7EB" stroke-width="2"/>
    <line x1="110" y1="130" x2="190" y2="130" stroke="#E5E7EB" stroke-width="2"/>
    <line x1="110" y1="160" x2="210" y2="160" stroke="#E5E7EB" stroke-width="2"/>
    <line x1="110" y1="180" x2="205" y2="180" stroke="#E5E7EB" stroke-width="2"/>
    <line x1="110" y1="200" x2="185" y2="200" stroke="#E5E7EB" stroke-width="2"/>
    <line x1="110" y1="220" x2="210" y2="220" stroke="#E5E7EB" stroke-width="2"/>
    <path d="M200 60 L200 100 L210 90 L220 100 L220 60 Z" fill="#EF4444"/>
    <circle cx="210" cy="280" r="12" fill="#FFFFFF"/>
    <path d="M204 276 L204 284 L216 284 L216 276 Z" fill="#3B82F6"/>
    <circle cx="208" cy="280" r="1.5" fill="#3B82F6"/>
    <circle cx="212" cy="280" r="1.5" fill="#3B82F6"/>
  </svg>