<svg width="384" height="384" viewBox="0 0 512 512" fill="none" xmlns="http://www.w3.org/2000/svg">
  <!-- 背景圆形 -->
  <circle cx="256" cy="256" r="256" fill="#3B82F6"/>
  
  <!-- 书本主体 -->
  <rect x="156" y="128" width="200" height="256" rx="8" fill="#FFFFFF"/>
  
  <!-- 书脊 -->
  <rect x="156" y="128" width="20" height="256" rx="8" fill="#1E40AF"/>
  
  <!-- 页面线条 -->
  <line x1="200" y1="180" x2="320" y2="180" stroke="#E5E7EB" stroke-width="2"/>
  <line x1="200" y1="200" x2="320" y2="200" stroke="#E5E7EB" stroke-width="2"/>
  <line x1="200" y1="220" x2="300" y2="220" stroke="#E5E7EB" stroke-width="2"/>
  
  <line x1="200" y1="260" x2="320" y2="260" stroke="#E5E7EB" stroke-width="2"/>
  <line x1="200" y1="280" x2="320" y2="280" stroke="#E5E7EB" stroke-width="2"/>
  <line x1="200" y1="300" x2="280" y2="300" stroke="#E5E7EB" stroke-width="2"/>
  
  <line x1="200" y1="340" x2="320" y2="340" stroke="#E5E7EB" stroke-width="2"/>
  <line x1="200" y1="360" x2="310" y2="360" stroke="#E5E7EB" stroke-width="2"/>
  
  <!-- 书签 -->
  <path d="M276 128 L276 180 L286 170 L296 180 L296 128 Z" fill="#EF4444"/>
  
  <!-- 微信读书标识 -->
  <circle cx="320" cy="160" r="16" fill="#3B82F6"/>
  <path d="M312 156 L312 164 L328 164 L328 156 Z" fill="#FFFFFF"/>
  <circle cx="316" cy="160" r="2" fill="#3B82F6"/>
  <circle cx="324" cy="160" r="2" fill="#3B82F6"/>
</svg>