<svg width="96" height="96" viewBox="0 0 96 96" fill="none" xmlns="http://www.w3.org/2000/svg">
  <!-- 背景 -->
  <rect width="96" height="96" rx="16" fill="#EC4899"/>
  
  <!-- 图表背景 -->
  <rect x="16" y="24" width="64" height="48" rx="4" fill="#FFFFFF"/>
  
  <!-- Y轴 -->
  <line x1="24" y1="32" x2="24" y2="64" stroke="#6B7280" stroke-width="2"/>
  
  <!-- X轴 -->
  <line x1="24" y1="64" x2="72" y2="64" stroke="#6B7280" stroke-width="2"/>
  
  <!-- 数据条形图 -->
  <rect x="28" y="52" width="6" height="12" fill="#3B82F6"/>
  <rect x="36" y="44" width="6" height="20" fill="#10B981"/>
  <rect x="44" y="48" width="6" height="16" fill="#F59E0B"/>
  <rect x="52" y="36" width="6" height="28" fill="#EF4444"/>
  <rect x="60" y="40" width="6" height="24" fill="#8B5CF6"/>
  
  <!-- 标题点 -->
  <circle cx="48" cy="16" r="2" fill="#FFFFFF"/>
  <circle cx="44" cy="16" r="2" fill="#FFFFFF"/>
  <circle cx="52" cy="16" r="2" fill="#FFFFFF"/>
  
  <!-- 趋势线 -->
  <path d="M28 55 L36 47 L44 51 L52 39 L60 43" stroke="#EC4899" stroke-width="2" fill="none"/>
  <circle cx="28" cy="55" r="2" fill="#EC4899"/>
  <circle cx="36" cy="47" r="2" fill="#EC4899"/>
  <circle cx="44" cy="51" r="2" fill="#EC4899"/>
  <circle cx="52" cy="39" r="2" fill="#EC4899"/>
  <circle cx="60" cy="43" r="2" fill="#EC4899"/>
</svg>